<svg xmlns="http://www.w3.org/2000/svg" viewBox="0 0 200 160">
  <rect x="1" y="1" width="198" height="158" fill="#ffffff" stroke="#c9d1d9"/>
  <!-- denied claim -->
  <rect x="24" y="30" width="60" height="80" fill="none" stroke="#444" stroke-width="1.5"/>
  <line x1="32" y1="46" x2="76" y2="46" stroke="#999" stroke-width="2"/>
  <line x1="32" y1="58" x2="76" y2="58" stroke="#999" stroke-width="2"/>
  <line x1="32" y1="70" x2="64" y2="70" stroke="#999" stroke-width="2"/>
  <line x1="34" y1="88" x2="52" y2="100" stroke="#e6194b" stroke-width="3"/>
  <line x1="52" y1="88" x2="34" y2="100" stroke="#e6194b" stroke-width="3"/>
  <!-- pipeline nodes -->
  <circle cx="104" cy="70" r="5" fill="none" stroke="#1772d0" stroke-width="2"/>
  <circle cx="124" cy="50" r="5" fill="none" stroke="#1772d0" stroke-width="2"/>
  <circle cx="124" cy="90" r="5" fill="none" stroke="#1772d0" stroke-width="2"/>
  <circle cx="144" cy="70" r="5" fill="none" stroke="#1772d0" stroke-width="2"/>
  <line x1="88" y1="70" x2="99" y2="70" stroke="#1772d0" stroke-width="1.5"/>
  <line x1="108" y1="66" x2="120" y2="54" stroke="#1772d0" stroke-width="1.5"/>
  <line x1="108" y1="74" x2="120" y2="86" stroke="#1772d0" stroke-width="1.5"/>
  <line x1="128" y1="54" x2="140" y2="66" stroke="#1772d0" stroke-width="1.5"/>
  <line x1="128" y1="86" x2="140" y2="74" stroke="#1772d0" stroke-width="1.5"/>
  <!-- appeal approved -->
  <path d="M158 64 l6 8 l12 -16" fill="none" stroke="#2a9d5c" stroke-width="3" stroke-linecap="round"/>
</svg>
